<svg xmlns="http://www.w3.org/2000/svg" viewBox="0 0 183.05 119.99"><defs><style>.cls-1{fill:#384158;}.cls-2{fill:#14bdee;}</style></defs><g id="Layer_2" data-name="Layer 2"><g id="Layer_1-2" data-name="Layer 1"><path class="cls-1" d="M0,57.43V51.35l6.27-1.18V7.3L0,6.11V0H43.74V14.79H36l-.67-7.14H16.21V23.9H36.37v7.69H16.21V49.85H36.4l.68-7.29h7.65V57.43Z"/><path class="cls-1" d="M65.71,58.26q-6.51,0-10.14-3.36t-3.63-9.23a11.72,11.72,0,0,1,2.21-7.06,14.43,14.43,0,0,1,6.47-4.75A27.8,27.8,0,0,1,71,32.15h6.5V28.56a7.24,7.24,0,0,0-2-5.41,8,8,0,0,0-5.89-2,13.21,13.21,0,0,0-3.91.53,10.44,10.44,0,0,0-3,1.52L61.69,29h-7.3l-.08-10.53a27.87,27.87,0,0,1,7-3.25A28.6,28.6,0,0,1,69.93,14q8.13,0,12.8,3.81t4.67,10.9V47.49c0,.58,0,1.14,0,1.69s0,1.1.1,1.62l4.34.55v6.08h-13c-.26-.92-.5-1.82-.73-2.68a21.76,21.76,0,0,1-.49-2.61,17.47,17.47,0,0,1-5.15,4.4A13.55,13.55,0,0,1,65.71,58.26ZM68,50.56a11.68,11.68,0,0,0,5.6-1.39,10,10,0,0,0,3.9-3.54V38.5H70.84c-3,0-5.22.69-6.73,2.07a6.36,6.36,0,0,0-2.27,4.83,4.74,4.74,0,0,0,1.58,3.82A6.8,6.8,0,0,0,68,50.56Z"/><path class="cls-1" d="M114.62,58.26a39.13,39.13,0,0,1-8.54-.89,44.52,44.52,0,0,1-8-2.62L98,43.46h7.14l1.5,6.16a18.8,18.8,0,0,0,3.49,1.16,17.61,17.61,0,0,0,4,.42q4.26,0,6-1.5A4.69,4.69,0,0,0,121.91,46a4.6,4.6,0,0,0-1.83-3.65c-1.22-1-3.56-1.88-7-2.62q-7.65-1.66-11.26-4.83a10.48,10.48,0,0,1-3.61-8.27,11.28,11.28,0,0,1,1.87-6.35,13,13,0,0,1,5.53-4.55,20.89,20.89,0,0,1,9-1.72,33.55,33.55,0,0,1,8.62,1,23.64,23.64,0,0,1,6.41,2.66l.23,10.85h-7.06l-1.22-5.64a9.32,9.32,0,0,0-2.84-1.34,13,13,0,0,0-3.71-.48,8.32,8.32,0,0,0-5.16,1.44,4.35,4.35,0,0,0-1.9,3.61,4.48,4.48,0,0,0,.61,2.29,5.4,5.4,0,0,0,2.37,1.87,25.94,25.94,0,0,0,5.15,1.64Q124.41,33.85,128,37a10.38,10.38,0,0,1,3.59,8.24,12,12,0,0,1-4.18,9.39Q123.22,58.25,114.62,58.26Z"/><path class="cls-1" d="M148.06,74.66a20.7,20.7,0,0,1-2.82-.23,21.55,21.55,0,0,1-2.78-.59l1.11-7.46c.47.08,1,.15,1.71.2s1.21.08,1.6.08a5.94,5.94,0,0,0,4.18-1.56,11.26,11.26,0,0,0,2.76-4.32l1.3-3.43L140.53,21.57l-5-.71V14.75h20.67v6.11l-5.25.79,7.42,19.88,1.3,3.71h.24l8.75-23.63-5.24-.75V14.75h19.6v6.11l-4.62.68L161.91,63.86A25.7,25.7,0,0,1,159,69.32a12.85,12.85,0,0,1-4.42,3.9A13.47,13.47,0,0,1,148.06,74.66Z"/><path class="cls-2" d="M10.82,119.16v-6.07l6.27-1.19V69l-6.27-1.18V61.73H37.76a24.84,24.84,0,0,1,11,2.25,16.47,16.47,0,0,1,7,6.25,19.14,19.14,0,0,1,0,18.74,16.2,16.2,0,0,1-7,6.21,25.27,25.27,0,0,1-11,2.21H27V111.9l6.27,1.19v6.07ZM27,89.7H37.76c3.52,0,6.17-1,7.93-2.84a10.15,10.15,0,0,0,2.64-7.18,10.53,10.53,0,0,0-2.64-7.34c-1.76-1.94-4.41-2.92-7.93-2.92H27Z"/><path class="cls-2" d="M76.33,120q-6.51,0-10.13-3.36t-3.63-9.22a11.61,11.61,0,0,1,2.21-7.06,14.39,14.39,0,0,1,6.47-4.76,27.74,27.74,0,0,1,10.33-1.71h6.51V90.29a7.29,7.29,0,0,0-2-5.41,8,8,0,0,0-5.9-2,13.3,13.3,0,0,0-3.91.53,10.51,10.51,0,0,0-3,1.52l-.91,5.76H65l-.07-10.53a27.87,27.87,0,0,1,7-3.25,28.85,28.85,0,0,1,8.59-1.21q8.13,0,12.8,3.81T98,90.41v18.81c0,.58,0,1.14,0,1.7s0,1.09.1,1.61l4.33.56v6.07h-13c-.27-.92-.51-1.82-.73-2.68a18.42,18.42,0,0,1-.49-2.61,17.59,17.59,0,0,1-5.15,4.4A13.46,13.46,0,0,1,76.33,120Zm2.25-7.69a11.66,11.66,0,0,0,5.6-1.4,10,10,0,0,0,3.91-3.53v-7.14H81.46q-4.45,0-6.72,2.07a6.33,6.33,0,0,0-2.27,4.83A4.73,4.73,0,0,0,74.05,111,6.82,6.82,0,0,0,78.58,112.3Z"/><path class="cls-2" d="M125.24,120a39.13,39.13,0,0,1-8.54-.89,44.52,44.52,0,0,1-8-2.62l-.11-11.28h7.14l1.49,6.15a19.05,19.05,0,0,0,3.49,1.16,17.63,17.63,0,0,0,4,.42q4.26,0,6-1.5a4.7,4.7,0,0,0,1.76-3.71,4.59,4.59,0,0,0-1.84-3.65q-1.83-1.51-7-2.62Q116,99.8,112.44,96.62a10.51,10.51,0,0,1-3.61-8.27A11.29,11.29,0,0,1,110.71,82a13.06,13.06,0,0,1,5.52-4.55,21,21,0,0,1,9-1.72,33.5,33.5,0,0,1,8.62,1,23.5,23.5,0,0,1,6.41,2.66l.24,10.85h-7.06l-1.23-5.64a9.2,9.2,0,0,0-2.84-1.34,13,13,0,0,0-3.7-.48,8.33,8.33,0,0,0-5.17,1.44,4.46,4.46,0,0,0-1.28,5.9A5.3,5.3,0,0,0,121.55,92a25.94,25.94,0,0,0,5.15,1.64q8.33,1.94,11.91,5a10.38,10.38,0,0,1,3.59,8.24,11.92,11.92,0,0,1-4.18,9.39Q133.83,120,125.24,120Z"/><path class="cls-2" d="M165.83,120a39.13,39.13,0,0,1-8.54-.89,44.52,44.52,0,0,1-7.95-2.62l-.12-11.28h7.14l1.5,6.15a18.8,18.8,0,0,0,3.49,1.16,17.61,17.61,0,0,0,4,.42q4.26,0,6-1.5a4.69,4.69,0,0,0,1.75-3.71,4.61,4.61,0,0,0-1.83-3.65c-1.22-1-3.56-1.88-7-2.62Q156.64,99.8,153,96.62a10.48,10.48,0,0,1-3.61-8.27A11.28,11.28,0,0,1,151.29,82a13,13,0,0,1,5.53-4.55,21,21,0,0,1,9-1.72,33.61,33.61,0,0,1,8.62,1,23.64,23.64,0,0,1,6.41,2.66l.23,10.85H174l-1.22-5.64a9.32,9.32,0,0,0-2.84-1.34,13,13,0,0,0-3.71-.48,8.37,8.37,0,0,0-5.17,1.44,4.38,4.38,0,0,0-1.89,3.61,4.46,4.46,0,0,0,.61,2.29A5.4,5.4,0,0,0,162.14,92a25.94,25.94,0,0,0,5.15,1.64c5.54,1.29,9.52,3,11.91,5a10.38,10.38,0,0,1,3.59,8.24,12,12,0,0,1-4.18,9.39Q174.43,120,165.83,120Z"/></g></g></svg>