<svg xmlns="http://www.w3.org/2000/svg" viewBox="0 0 358.37 74.66"><defs><style>.cls-1{fill:#384158;}.cls-2{fill:#14bdee;}</style></defs><g id="Layer_2" data-name="Layer 2"><g id="Layer_1-2" data-name="Layer 1"><path class="cls-1" d="M0,57.43V51.35l6.27-1.18V7.3L0,6.11V0H43.74V14.79H36l-.67-7.14H16.21V23.9H36.37v7.69H16.21V49.85H36.4l.68-7.29h7.65V57.43Z"/><path class="cls-1" d="M65.71,58.26q-6.51,0-10.14-3.36t-3.63-9.23a11.72,11.72,0,0,1,2.21-7.06,14.43,14.43,0,0,1,6.47-4.75A27.8,27.8,0,0,1,71,32.15h6.5V28.56a7.24,7.24,0,0,0-2-5.41,8,8,0,0,0-5.89-2,13.21,13.21,0,0,0-3.91.53,10.44,10.44,0,0,0-3,1.52L61.69,29h-7.3l-.08-10.53a27.87,27.87,0,0,1,7-3.25A28.6,28.6,0,0,1,69.93,14q8.13,0,12.8,3.81t4.67,10.9V47.49c0,.58,0,1.14,0,1.69s0,1.1.1,1.62l4.34.55v6.08h-13c-.26-.92-.5-1.82-.73-2.68a21.76,21.76,0,0,1-.49-2.61,17.47,17.47,0,0,1-5.15,4.4A13.55,13.55,0,0,1,65.71,58.26ZM68,50.56a11.68,11.68,0,0,0,5.6-1.39,10,10,0,0,0,3.9-3.54V38.5H70.84c-3,0-5.22.69-6.73,2.07a6.36,6.36,0,0,0-2.27,4.83,4.74,4.74,0,0,0,1.58,3.82A6.8,6.8,0,0,0,68,50.56Z"/><path class="cls-1" d="M114.62,58.26a39.13,39.13,0,0,1-8.54-.89,44.52,44.52,0,0,1-8-2.62L98,43.46h7.14l1.5,6.16a18.8,18.8,0,0,0,3.49,1.16,17.61,17.61,0,0,0,4,.42q4.26,0,6-1.5A4.69,4.69,0,0,0,121.91,46a4.6,4.6,0,0,0-1.83-3.65c-1.22-1-3.56-1.88-7-2.62q-7.65-1.66-11.26-4.83a10.48,10.48,0,0,1-3.61-8.27,11.28,11.28,0,0,1,1.87-6.35,13,13,0,0,1,5.53-4.55,20.89,20.89,0,0,1,9-1.72,33.55,33.55,0,0,1,8.62,1,23.64,23.64,0,0,1,6.41,2.66l.23,10.85h-7.06l-1.22-5.64a9.32,9.32,0,0,0-2.84-1.34,13,13,0,0,0-3.71-.48,8.32,8.32,0,0,0-5.16,1.44,4.35,4.35,0,0,0-1.9,3.61,4.48,4.48,0,0,0,.61,2.29,5.4,5.4,0,0,0,2.37,1.87,25.94,25.94,0,0,0,5.15,1.64Q124.41,33.85,128,37a10.38,10.38,0,0,1,3.59,8.24,12,12,0,0,1-4.18,9.39Q123.22,58.25,114.62,58.26Z"/><path class="cls-1" d="M148.06,74.66a20.7,20.7,0,0,1-2.82-.23,21.55,21.55,0,0,1-2.78-.59l1.11-7.46c.47.08,1,.15,1.71.2s1.21.08,1.6.08a5.94,5.94,0,0,0,4.18-1.56,11.26,11.26,0,0,0,2.76-4.32l1.3-3.43L140.53,21.57l-5-.71V14.75h20.67v6.11l-5.25.79,7.42,19.88,1.3,3.71h.24l8.75-23.63-5.24-.75V14.75h19.6v6.11l-4.62.68L161.91,63.86A25.7,25.7,0,0,1,159,69.32a12.85,12.85,0,0,1-4.42,3.9A13.47,13.47,0,0,1,148.06,74.66Z"/><path class="cls-2" d="M186.4,57.43V51.35l6.27-1.18V7.3L186.4,6.11V0h26.94a24.81,24.81,0,0,1,11,2.25,16.55,16.55,0,0,1,7,6.25,17.61,17.61,0,0,1,2.44,9.37,17.58,17.58,0,0,1-2.44,9.36,16.36,16.36,0,0,1-7,6.22,25.24,25.24,0,0,1-11,2.21H202.61V50.17l6.27,1.18v6.08ZM202.61,28h10.73c3.52,0,6.17-.94,7.93-2.84A10.11,10.11,0,0,0,223.91,18a10.53,10.53,0,0,0-2.64-7.34c-1.76-1.95-4.41-2.92-7.93-2.92H202.61Z"/><path class="cls-2" d="M251.92,58.26q-6.51,0-10.14-3.36t-3.63-9.23a11.72,11.72,0,0,1,2.21-7.06,14.37,14.37,0,0,1,6.47-4.75,27.74,27.74,0,0,1,10.33-1.71h6.51V28.56a7.28,7.28,0,0,0-2-5.41,8,8,0,0,0-5.9-2,13.19,13.19,0,0,0-3.9.53,10.32,10.32,0,0,0-3,1.52L247.89,29H240.6l-.08-10.53a27.87,27.87,0,0,1,7-3.25,28.55,28.55,0,0,1,8.6-1.21q8.12,0,12.79,3.81t4.68,10.9V47.49c0,.58,0,1.14,0,1.69s0,1.1.1,1.62l4.33.55v6.08h-13c-.26-.92-.51-1.82-.73-2.68a18.42,18.42,0,0,1-.49-2.61,17.59,17.59,0,0,1-5.15,4.4A13.55,13.55,0,0,1,251.92,58.26Zm2.24-7.7a11.65,11.65,0,0,0,5.6-1.39,10,10,0,0,0,3.91-3.54V38.5H257q-4.46,0-6.72,2.07a6.36,6.36,0,0,0-2.27,4.83,4.74,4.74,0,0,0,1.58,3.82A6.77,6.77,0,0,0,254.16,50.56Z"/><path class="cls-2" d="M300.82,58.26a39.2,39.2,0,0,1-8.54-.89,44.17,44.17,0,0,1-7.94-2.62l-.12-11.29h7.14l1.5,6.16a18.8,18.8,0,0,0,3.49,1.16,17.54,17.54,0,0,0,4,.42q4.26,0,6-1.5A4.7,4.7,0,0,0,308.12,46a4.6,4.6,0,0,0-1.83-3.65c-1.23-1-3.56-1.88-7-2.62q-7.65-1.66-11.26-4.83a10.51,10.51,0,0,1-3.6-8.27,11.28,11.28,0,0,1,1.87-6.35,13.06,13.06,0,0,1,5.52-4.55,20.89,20.89,0,0,1,9-1.72,33.5,33.5,0,0,1,8.62,1,23.5,23.5,0,0,1,6.41,2.66l.24,10.85H309l-1.23-5.64a9.2,9.2,0,0,0-2.84-1.34,13,13,0,0,0-3.7-.48,8.33,8.33,0,0,0-5.17,1.44,4.46,4.46,0,0,0-1.28,5.9,5.36,5.36,0,0,0,2.36,1.87,25.94,25.94,0,0,0,5.15,1.64q8.33,1.94,11.91,5.05a10.35,10.35,0,0,1,3.59,8.24,11.93,11.93,0,0,1-4.18,9.39Q309.41,58.25,300.82,58.26Z"/><path class="cls-2" d="M341.41,58.26a39.13,39.13,0,0,1-8.54-.89,44.52,44.52,0,0,1-7.95-2.62l-.12-11.29h7.14l1.5,6.16a19.05,19.05,0,0,0,3.49,1.16,17.63,17.63,0,0,0,4,.42q4.26,0,6-1.5A4.7,4.7,0,0,0,348.71,46a4.61,4.61,0,0,0-1.84-3.65c-1.22-1-3.56-1.88-7-2.62q-7.65-1.66-11.26-4.83A10.48,10.48,0,0,1,325,26.62a11.36,11.36,0,0,1,1.87-6.35,13,13,0,0,1,5.53-4.55,20.89,20.89,0,0,1,9-1.72A33.55,33.55,0,0,1,350,15a23.64,23.64,0,0,1,6.41,2.66l.23,10.85h-7.06l-1.22-5.64a9.2,9.2,0,0,0-2.84-1.34,13,13,0,0,0-3.71-.48,8.32,8.32,0,0,0-5.16,1.44,4.35,4.35,0,0,0-1.9,3.61,4.48,4.48,0,0,0,.61,2.29,5.4,5.4,0,0,0,2.37,1.87,25.94,25.94,0,0,0,5.15,1.64q8.33,1.94,11.91,5.05a10.38,10.38,0,0,1,3.59,8.24,12,12,0,0,1-4.18,9.39Q350,58.25,341.41,58.26Z"/></g></g></svg>